inDegrees=no
num_controls=7
num_derivatives=13
num_iterations=106
num_multipliers=7
num_parameters=0
num_slacks=7
num_states=26
objective=0.545153
objective_accelerations=0.042084
objective_balance=0.003852
objective_effort=0.041112
objective_height=0.448657
objective_ligament=0.009449
solver_duration=1412.921623
status=Solve_Succeeded
success=true
DataType=double
version=3
OpenSimVersion=4.5
endheader
time	/jointset/ground_pelvis/pelvis_tilt/value	/jointset/ground_pelvis/pelvis_tx/value	/jointset/ground_pelvis/pelvis_ty/value	/jointset/hip_r/hip_flexion_r/value	/jointset/hip_r/hip_adduction_r/value	/jointset/hip_r/hip_rotation_r/value	/jointset/back/lumbar_extension/value	/jointset/patellofemoral_r/patellar_flexion_r/value	/jointset/knee_r/knee_flexion_r/value	/jointset/knee_r/knee_adduction_r/value	/jointset/knee_r/knee_rotation_r/value	/jointset/ankle_r/ankle_angle_r/value	/jointset/subtalar_r/subtalar_angle_r/value	/jointset/ground_pelvis/pelvis_tilt/speed	/jointset/ground_pelvis/pelvis_tx/speed	/jointset/ground_pelvis/pelvis_ty/speed	/jointset/hip_r/hip_flexion_r/speed	/jointset/hip_r/hip_adduction_r/speed	/jointset/hip_r/hip_rotation_r/speed	/jointset/back/lumbar_extension/speed	/jointset/patellofemoral_r/patellar_flexion_r/speed	/jointset/knee_r/knee_flexion_r/speed	/jointset/knee_r/knee_adduction_r/speed	/jointset/knee_r/knee_rotation_r/speed	/jointset/ankle_r/ankle_angle_r/speed	/jointset/subtalar_r/subtalar_angle_r/speed	/forceset/tau_hip_flexion_r	/forceset/tau_hip_adduction_r	/forceset/tau_hip_rotation_r	/forceset/tau_knee_flexion_r	/forceset/tau_ankle_angle_r	/forceset/tau_subtalar_angle_r	/forceset/tau_lumbar_extension	lambda_cid13_p0	lambda_cid14_p0	lambda_cid14_p1	lambda_cid14_p2	lambda_cid14_p3	lambda_cid14_p4	lambda_cid14_p5	/jointset/ground_pelvis/pelvis_tilt/accel	/jointset/ground_pelvis/pelvis_tx/accel	/jointset/ground_pelvis/pelvis_ty/accel	/jointset/hip_r/hip_flexion_r/accel	/jointset/hip_r/hip_adduction_r/accel	/jointset/hip_r/hip_rotation_r/accel	/jointset/back/lumbar_extension/accel	/jointset/patellofemoral_r/patellar_flexion_r/accel	/jointset/knee_r/knee_flexion_r/accel	/jointset/knee_r/knee_adduction_r/accel	/jointset/knee_r/knee_rotation_r/accel	/jointset/ankle_r/ankle_angle_r/accel	/jointset/subtalar_r/subtalar_angle_r/accel	gamma_cid13_p0	gamma_cid14_p0	gamma_cid14_p1	gamma_cid14_p2	gamma_cid14_p3	gamma_cid14_p4	gamma_cid14_p5
0.5	-0.2279140041953558	-0.005822123964425875	0.8388266827058164	0.9155775500020076	-0.2275760023241252	-0.1325227287945422	-0.3383511647690758	0.6958918180279768	0.6958918180279761	0.0353155739666632	0.1745107350238914	0.1764634955800942	0.03559192890571038	-0.6107339827088757	-0.2146636797356196	-0.4111739298551573	1.987057482916907	-0.0007251581746355515	0.266307535813869	-0.5928716628898769	1.674223600574322	1.674223600574325	-0.2807920739783011	-0.0002045778112359646	0.3784507047213913	0.09556848417220049	-0.1585977033950767	-0.02281045113409944	0.009393080092337009	-0.3088837353397861	0.116148084565887	-0.008386336489504966	0.1911979654600141	-31.56401869249078	-4.887569834278886	-0.3168975149904756	-4.265293227614431	-2.242448982553399	-667.5187619871118	60.06796314823846	0.3322690796212628	0.5435144450489526	-0.3397823920249619	-1.356286806062192	-0.03422458694992943	-0.4822218480198166	1.73058653525436	-1.230432229427596	-1.230432229427596	0.4863720339748441	-0.009087199999606129	-0.3411443757225558	-0.08778704285841513	-1.008664014060896e-07	-9.568210251725513e-08	6.831639948214906e-07	-6.027668442714695e-07	-1.58334336144442e-08	-1.816499456469585e-07	3.886062445106298e-07
0.51	-0.2340035898318723	-0.007941408916443434	0.8346988781432699	0.9353772554930616	-0.2275855961087387	-0.1298839728063244	-0.344193149374721	0.7125701194817526	0.712570119481753	0.03253334040645171	0.1745090243415984	0.1802301002569545	0.0365422173552705	-0.6070992440532675	-0.2091784905317335	-0.4142967959746927	1.972628473347604	-0.001202864585142647	0.2614732017028807	-0.5754715524715054	1.66121034847945	1.661210348479451	-0.2755986742472238	-0.0001546770234501268	0.3748061796142295	0.09445808438155635	-0.1663716793305085	-0.02130211340152274	0.01004094450531532	-0.311109427586381	0.1135229277444819	-0.007956430761891746	0.1977154940059356	-30.60200002411087	-5.94363243352749	-0.4146979532025208	-4.13593445796024	-1.764748232619461	-671.708495230129	59.84800270173334	0.3916542432703898	0.5532348037751034	-0.2850406009083715	-1.524488839075279	-0.05590991274105002	-0.4797292285748266	1.752779160274028	-1.370704676134793	-1.370704676134962	0.5443237956968888	0.009384861315186026	-0.3857340866379095	-0.1272552058433418	-7.601502543196213e-08	-7.945582092100119e-09	9.233758310858858e-07	1.675741228211161e-08	-1.016377168766572e-07	-9.566235507252173e-08	3.768886535199448e-07
0.52	-0.2400543124848847	-0.0100053992472788	0.8305425445437299	0.9550250147270805	-0.2276002402063854	-0.1272926981664035	-0.3498595217031533	0.7291115018192563	0.7291115018192575	0.02980474081415541	0.1745072838958125	0.1839583341810581	0.03748048405518903	-0.6029613860080669	-0.2036047554991804	-0.4168797372538525	1.956668231509861	-0.001735220781248488	0.2568112661544337	-0.5577492074473177	1.646839777319868	1.646839777319868	-0.2700652803952377	-0.0002105305097642695	0.3707765541700713	0.09316413424387505	-0.1741456552659321	-0.01979377566894575	0.01068880891829	-0.3133351198329757	0.1108977709230771	-0.007526525034277937	0.2042330225518574	-29.63354072483205	-7.003543952708283	-0.5110601233040101	-4.009217655737215	-1.294646496073953	-675.9639931422223	59.67077918633425	0.4328929575398006	0.5612236107823818	-0.2317974239498455	-1.662533259750402	-0.04515454406974547	-0.4477421355114677	1.795033456417588	-1.501896042369498	-1.5018960423695	0.5543708581565989	-0.03023805481963264	-0.4181644431218333	-0.1244971122658448	-4.494532308238783e-08	1.030812913387745e-07	1.224477930550728e-06	7.85385993321196e-07	-2.122837097459524e-07	1.291879363764238e-08	3.86970511803662e-07
0.53	-0.2460613707819874	-0.01201322497776569	0.826363101972225	0.9745058936257779	-0.2276198604541571	-0.1247497600752689	-0.3553469969519648	0.7455025533218491	0.7455025533218502	0.02713040842739531	0.1745058952496842	0.1876446455299617	0.03840576696804451	-0.5983740011370224	-0.1979453408762362	-0.4189139552780755	1.93925487869099	-0.002198144333926321	0.2518049747348539	-0.5397025790698033	1.63114667740962	1.631146677409619	-0.2647489978869844	-8.524306866578745e-05	0.3664301063662642	0.0918632880836199	-0.1815754023099795	-0.01857212536929196	0.01126616127039308	-0.316109121391105	0.1090680539296001	-0.007136383103374781	0.2104848681653801	-28.65926000641349	-7.81425744184267	-0.582028308384835	-3.885442732799976	-1.019963560441559	-680.3173661367049	59.59016620943568	0.4831138291495657	0.5705037661857715	-0.1749967360365236	-1.818620946429485	-0.04795199987627791	-0.52275606583097	1.815967015192946	-1.63658810853507	-1.63658810853529	0.5283514147487105	0.03142258983691538	-0.4512673737175901	-0.1368948102778086	-2.46274002716782e-08	1.72249522784715e-07	1.403511256579381e-06	1.258827160178954e-06	-2.808847240616138e-07	7.984730300716619e-08	4.054709088977543e-07
